<?xml version="1.0" encoding="utf-8"?>
<!-- Generator: Adobe Illustrator 21.1.0, SVG Export Plug-In . SVG Version: 6.00 Build 0)  -->
<svg version="1.1" id="Layer_1" xmlns="http://www.w3.org/2000/svg" xmlns:xlink="http://www.w3.org/1999/xlink" x="0px" y="0px"
	 viewBox="0 0 250.2 226.6" style="enable-background:new 0 0 250.2 226.6;" xml:space="preserve">
<style type="text/css">
	.st0{fill:none;stroke:#2C2C3A;stroke-width:7;stroke-miterlimit:10;}
	.st1{fill:#2C2C3A;}
	.st2{fill:#2F2F3D;}
	.st3{fill:#39384B;}
	.st4{fill:#424254;}
	.st5{fill:#1E1F28;}
</style>
<path class="st0" d="M215.8,182.2H49.4c-6.6,0-12-5.4-12-12V33.7c0-6.6,5.4-12,12-12h166.4c6.6,0,12,5.4,12,12v136.5
	C227.8,176.8,222.4,182.2,215.8,182.2z"/>
<line class="st0" x1="37.4" y1="143.8" x2="227.8" y2="143.8"/>
<circle class="st1" cx="134.4" cy="163.3" r="4.3"/>
<rect x="108.1" y="179.2" class="st1" width="43.6" height="36.1"/>
<path class="st2" d="M215.9,143.8H49.4c-6.6,0-12-5.4-12-12V35.5c0-6.6,5.4-12,12-12h166.5c6.6,0,12,5.4,12,12v96.3
	C227.8,138.4,222.5,143.8,215.9,143.8z"/>
<path class="st3" d="M111.6,215.3h-74c-5.4,0-9.8-4.4-9.8-9.8V87.1c0-5.4,4.4-9.8,9.8-9.8h74c5.4,0,9.8,4.4,9.8,9.8v118.4
	C121.3,210.9,117,215.3,111.6,215.3z"/>
<path class="st4" d="M107.1,201.1H42.1c-2.6,0-4.7-2.1-4.7-4.7V96.2c0-2.6,2.1-4.7,4.7-4.7h64.9c2.6,0,4.7,2.1,4.7,4.7v100.3
	C111.8,199,109.6,201.1,107.1,201.1z"/>
<circle class="st1" cx="74.6" cy="207.8" r="4.3"/>
<path class="st1" d="M61.3,214.8H25.2c-3.5,0-6.3-2.8-6.3-6.3v-74.1c0-3.5,2.8-6.3,6.3-6.3h36.1c3.5,0,6.3,2.8,6.3,6.3v74.1
	C67.6,212,64.8,214.8,61.3,214.8z"/>
<path class="st5" d="M60.2,205.2H26.3c-2.1,0-3.9-1.7-3.9-3.9v-63.1c0-2.1,1.7-3.9,3.9-3.9h33.9c2.1,0,3.9,1.7,3.9,3.9v63.1
	C64.1,203.5,62.3,205.2,60.2,205.2z"/>
<circle class="st5" cx="41.7" cy="209.5" r="3.5"/>
<rect x="123.5" y="206" class="st1" width="54.1" height="9.3"/>
</svg>
