<svg id="Layer_1" data-name="Layer 1" xmlns="http://www.w3.org/2000/svg" viewBox="0 0 379.38 291.79"><defs><style>.cls-1{fill:#39384b;}.cls-2{fill:#2c2c3a;}.cls-3{fill:#e5e5e5;}.cls-4{fill:#fff;}</style></defs><title>files-icon</title><path class="cls-1" d="M263.72,42.57C271.26,34.33,278.8,34,278.8,34h103s8.27-2.54,6.36,16.54c-1.27,19.72-10.81,246.79-10.81,246.79s0,8.9-12.09,6.36c-19.08.63-340.28.45-340.28.45s-7.64-1.73-7.64-10.63S9.11,90.59,9.11,90.59s-.63-14,13.36-17.81H217.74c25.55,0,28.87,1.71,34.15-8.9.84-1.69,1.72-3.68,2.76-6L255.9,55A44.65,44.65,0,0,1,263.72,42.57Z" transform="translate(-9.11 -12.36)"/><path class="cls-2" d="M263.72,42.57A44.65,44.65,0,0,0,255.9,55l-1.25,2.86H32.08v15H22.47V48.61L35.19,19.35s-.63-7,16.54-7H152.86s8.91-.64,11.45,11.44c.64,7.64,1.91,17.81,17.17,18.77C196,42.27,257.84,42.54,263.72,42.57Z" transform="translate(-9.11 -12.36)"/><path class="cls-3" d="M32.08,57.83H254.65c-1,2.37-1.92,4.36-2.76,6H37.1v8.9h-5Z" transform="translate(-9.11 -12.36)"/><path class="cls-4" d="M37.1,63.88H251.89c-5.28,10.61-8.6,8.9-34.15,8.9H37.1Z" transform="translate(-9.11 -12.36)"/></svg>