<svg id="Layer_1" data-name="Layer 1" xmlns="http://www.w3.org/2000/svg" viewBox="0 0 218.05 298"><defs><style>.cls-1{fill:#39384b;}.cls-2{fill:#2c2c3a;}.cls-3{fill:#8c898a;}</style></defs><title>security-icon</title><path class="cls-1" d="M238.57,79.84,28.15,260.77h0c-9.39-18.77-7.36-34.69-7.36-47.17,0-11.19-.56-132.08,0-132.08C126,75.92,127.88,43,127.88,43,147.67,82.84,238.57,79.84,238.57,79.84Z" transform="translate(-20.53 -43)"/><path class="cls-2" d="M28.15,260.77,238.57,79.84s-.07,106.34-.07,139.92c1.12,32.46-10.08,45.33-22.95,62.68C187,311.54,127.88,341,127.88,341s-14.75-8.75-62.32-39.53c-20-14.69-31.21-28.31-37.42-40.7Z" transform="translate(-20.53 -43)"/><path class="cls-3" d="M230.8,121c3.81,0,3.2,3.72,3.2,3.72v34.86c0,4.72-4.72,4.72-4.72,4.72H176.77c-5.48,0-5-2.9-5-2.9V126.53c0-1.29.1-3.35,1.34-4.16,1.54-1,4.7-.26,6.43-.26,0,0-.31-17.2,0-19.48A22.84,22.84,0,0,1,185.24,91a24.58,24.58,0,0,1,17.62-7.82h.36l.17,10.62h-.53c-16.49,1.08-12,27.09-12,27.09s24.56.36,24.92,0a60.52,60.52,0,0,0,.25-10l11.15-.66A69.16,69.16,0,0,1,227,121Z" transform="translate(-20.53 -43)"/><path class="cls-3" d="M227.14,110.11l-11.15.66c-1-15-9-16.87-12.6-17l-.17-10.62c7.95-.07,15.84,3.51,20.15,10.92a30.28,30.28,0,0,1,3.28,11.13C226.88,106.8,227,108.45,227.14,110.11Z" transform="translate(-20.53 -43)"/><circle class="cls-2" cx="182.65" cy="92.55" r="6.89"/><rect class="cls-2" x="179.37" y="91.18" width="7.01" height="23.28" rx="3.51" ry="3.51"/></svg>