<svg id="Layer_1" data-name="Layer 1" xmlns="http://www.w3.org/2000/svg" viewBox="0 0 226 226"><defs><style>.cls-1{fill:#e7e751;}.cls-2{fill:#39384b;}</style></defs><title>twitter-logo</title><rect class="cls-1" width="226" height="226" rx="46.15" ry="46.15"/><path class="cls-2" d="M121.78,103.44s-33.46,0-56.92-28.57c0,.3-9.63,23.76,8.12,36.7-.3,0-4.31.6-10.73-2.41-.1,0-4.61,16.54,20.35,27.07a36.86,36.86,0,0,1-10.83,1.5c-.3,0,6.32,16.54,24.06,18.35-.3,0-11.13,12-37.9,11.73-.3.3,25,21.05,67.08,8.42,23.16-8.12,44.22-29.18,49.93-53.54,2.11-6.91,3-25.86,3-25.86s6.62-2.71,12.93-13.23c0,.3-6.32,3-13.23,3,0,0,9.63-7.82,10.23-14.14-.3,0-13.83,6.32-17.44,6.32-.25,0-1.65-1.89-1.88-2.1a22.15,22.15,0,0,0-6.46-4.17c-9.55-4.17-22.57-3.7-30.5,3.58a29.14,29.14,0,0,0-7.14,10.49C123.84,88.07,120.34,103.44,121.78,103.44Z" transform="translate(-8.78 -9.69)"/></svg>